{"scene":0,"asset":{"generator":"ImageToStl.com","version":"2.0"},"scenes":[{"name":"Scene","nodes":[0]}],"nodes":[{"name":"Node0","children":[1]},{"name":"Scene","children":[2,3,4,5,6,7,8,9]},{"name":"Vacío"},{"name":"Esfera","mesh":0},{"name":"Esfera.001","mesh":1},{"name":"Esfera.002","mesh":2},{"name":"0","mesh":3},{"name":"1","mesh":4},{"name":"Cubo.001","mesh":5},{"name":"Cubo.002","mesh":6}],"materials":[{"name":"Material.0010","pbrMetallicRoughness":{"baseColorFactor":[1.0,1.0,1.0,1.0],"metallicFactor":0.0,"roughnessFactor":0.9},"doubleSided":true},{"name":"01","pbrMetallicRoughness":{"baseColorFactor":[0.0,0.0,0.0,1.0],"metallicFactor":0.0,"roughnessFactor":1.0,"baseColorTexture":{"index":0}},"emissiveFactor":[1.0,1.0,1.0],"doubleSided":true,"emissiveTexture":{"index":0}},{"name":"12","pbrMetallicRoughness":{"baseColorFactor":[0.0,0.0,0.0,1.0],"metallicFactor":0.0,"roughnessFactor":1.0,"baseColorTexture":{"index":1}},"emissiveFactor":[1.0,1.0,1.0],"doubleSided":true,"emissiveTexture":{"index":1}}],"images":[{"bufferView":0,"name":"","mimeType":"image/png"},{"bufferView":1,"name":"","mimeType":"image/png"}],"textures":[{"sampler":0,"source":0},{"sampler":0,"source":1}],"samplers":[{"magFilter":9729,"minFilter":9987}],"meshes":[{"name":"Mesh0","primitives":[{"indices":3,"material":0,"attributes":{"POSITION":0,"NORMAL":1,"TEXCOORD_0":2}}]},{"name":"Mesh0","primitives":[{"indices":7,"material":0,"attributes":{"POSITION":4,"NORMAL":5,"TEXCOORD_0":6}}]},{"name":"Mesh0","primitives":[{"indices":11,"material":0,"attributes":{"POSITION":8,"NORMAL":9,"TEXCOORD_0":10}}]},{"name":"Mesh0","primitives":[{"indices":15,"material":1,"attributes":{"POSITION":12,"NORMAL":13,"TEXCOORD_0":14}}]},{"name":"Mesh0","primitives":[{"indices":19,"material":2,"attributes":{"POSITION":16,"NORMAL":17,"TEXCOORD_0":18}}]},{"name":"Mesh0","primitives":[{"indices":23,"material":0,"attributes":{"POSITION":20,"NORMAL":21,"TEXCOORD_0":22}}]},{"name":"Mesh0","primitives":[{"indices":27,"material":0,"attributes":{"POSITION":24,"NORMAL":25,"TEXCOORD_0":26}}]}],"accessors":[{"bufferView":2,"componentType":5126,"count":559,"type":"VEC3","min":[-1.2678729,-1.2678741,-1.2678741],"max":[1.2678738,1.2678741,1.2678733]},{"bufferView":3,"componentType":5126,"count":559,"type":"VEC3"},{"bufferView":4,"componentType":5126,"count":559,"type":"VEC2"},{"bufferView":5,"componentType":5123,"count":8640,"type":"SCALAR"},{"bufferView":6,"componentType":5126,"count":559,"type":"VEC3","min":[0.4272806,-0.6748867,-0.5070335],"max":[1.4808073,0.37258315,0.49639788]},{"bufferView":7,"componentType":5126,"count":559,"type":"VEC3"},{"bufferView":8,"componentType":5126,"count":559,"type":"VEC2"},{"bufferView":9,"componentType":5123,"count":8640,"type":"SCALAR"},{"bufferView":10,"componentType":5126,"count":559,"type":"VEC3","min":[-1.4808073,-0.6748867,-0.5070335],"max":[-0.42728055,0.37258315,0.4963979]},{"bufferView":11,"componentType":5126,"count":559,"type":"VEC3"},{"bufferView":12,"componentType":5126,"count":559,"type":"VEC2"},{"bufferView":13,"componentType":5123,"count":8640,"type":"SCALAR"},{"bufferView":14,"componentType":5126,"count":289,"type":"VEC3","min":[-0.82015777,-0.34107363,1.2081892],"max":[0.6899261,0.3644237,1.2081895]},{"bufferView":15,"componentType":5126,"count":289,"type":"VEC3"},{"bufferView":16,"componentType":5126,"count":289,"type":"VEC2"},{"bufferView":17,"componentType":5123,"count":4608,"type":"SCALAR"},{"bufferView":18,"componentType":5126,"count":1533,"type":"VEC3","min":[-0.22276752,-0.6040198,1.2081894],"max":[0.17429717,-0.25866228,1.2081894]},{"bufferView":19,"componentType":5126,"count":1533,"type":"VEC3"},{"bufferView":20,"componentType":5126,"count":1533,"type":"VEC2"},{"bufferView":21,"componentType":5123,"count":36864,"type":"SCALAR"},{"bufferView":22,"componentType":5126,"count":1070,"type":"VEC3","min":[0.060673654,-1.4368544,-0.849721],"max":[1.2804903,-0.7205232,0.84997153]},{"bufferView":23,"componentType":5126,"count":1070,"type":"VEC3"},{"bufferView":24,"componentType":5126,"count":1070,"type":"VEC2"},{"bufferView":25,"componentType":5123,"count":16362,"type":"SCALAR"},{"bufferView":26,"componentType":5126,"count":1065,"type":"VEC3","min":[-1.2804904,-1.4368544,-0.84972095],"max":[-0.060673904,-0.72052324,0.84997165]},{"bufferView":27,"componentType":5126,"count":1065,"type":"VEC3"},{"bufferView":28,"componentType":5126,"count":1065,"type":"VEC2"},{"bufferView":29,"componentType":5123,"count":16272,"type":"SCALAR"}],"bufferViews":[{"buffer":0,"byteLength":188672,"byteOffset":0},{"buffer":0,"byteLength":137681,"byteOffset":188672},{"target":34962,"buffer":0,"byteLength":6708,"byteOffset":326356},{"target":34962,"buffer":0,"byteLength":6708,"byteOffset":333064},{"target":34962,"buffer":0,"byteLength":4472,"byteOffset":339772},{"target":34963,"buffer":0,"byteLength":17280,"byteOffset":344244},{"target":34962,"buffer":0,"byteLength":6708,"byteOffset":361524},{"target":34962,"buffer":0,"byteLength":6708,"byteOffset":368232},{"target":34962,"buffer":0,"byteLength":4472,"byteOffset":374940},{"target":34963,"buffer":0,"byteLength":17280,"byteOffset":379412},{"target":34962,"buffer":0,"byteLength":6708,"byteOffset":396692},{"target":34962,"buffer":0,"byteLength":6708,"byteOffset":403400},{"target":34962,"buffer":0,"byteLength":4472,"byteOffset":410108},{"target":34963,"buffer":0,"byteLength":17280,"byteOffset":414580},{"target":34962,"buffer":0,"byteLength":3468,"byteOffset":431860},{"target":34962,"buffer":0,"byteLength":3468,"byteOffset":435328},{"target":34962,"buffer":0,"byteLength":2312,"byteOffset":438796},{"target":34963,"buffer":0,"byteLength":9216,"byteOffset":441108},{"target":34962,"buffer":0,"byteLength":18396,"byteOffset":450324},{"target":34962,"buffer":0,"byteLength":18396,"byteOffset":468720},{"target":34962,"buffer":0,"byteLength":12264,"byteOffset":487116},{"target":34963,"buffer":0,"byteLength":73728,"byteOffset":499380},{"target":34962,"buffer":0,"byteLength":12840,"byteOffset":573108},{"target":34962,"buffer":0,"byteLength":12840,"byteOffset":585948},{"target":34962,"buffer":0,"byteLength":8560,"byteOffset":598788},{"target":34963,"buffer":0,"byteLength":32724,"byteOffset":607348},{"target":34962,"buffer":0,"byteLength":12780,"byteOffset":640072},{"target":34962,"buffer":0,"byteLength":12780,"byteOffset":652852},{"target":34962,"buffer":0,"byteLength":8520,"byteOffset":665632},{"target":34963,"buffer":0,"byteLength":32544,"byteOffset":674152}],"buffers":[{"byteLength":706696,"uri":"data:application/octet-stream;base64,"}]}